<?xml version="1.0" encoding="utf-8"?>
<!-- Generator: Adobe Illustrator 26.1.0, SVG Export Plug-In . SVG Version: 6.00 Build 0)  -->
<svg version="1.1" id="Capa_1" xmlns="http://www.w3.org/2000/svg" xmlns:xlink="http://www.w3.org/1999/xlink" x="0px" y="0px"
	 viewBox="0 0 31.1 48" style="enable-background:new 0 0 31.1 48;" xml:space="preserve">
<style type="text/css">
	.st0{fill-rule:evenodd;clip-rule:evenodd;fill:#0A3871;}
</style>
<path class="st0" d="M23.4,23.7c0,0.3-0.1,0.5-0.3,0.8c-0.2,0.2-0.4,0.4-0.6,0.6c-0.5,0.3-0.9,0.5-1.4,0.6c-0.9,0.3-1.9,0.6-2.9,1
	c-1.1,0.4-2.1,0.7-2.9,1c-1.1,0.4-2.1,0.7-3.1,1.1C11.4,29,10.7,29.5,10,30c-0.6,0.5-1.1,1.1-1.5,1.8c-0.4,0.7-0.7,1.7-0.7,2.8
	c0,2.2,0.5,4,1.6,5c1.1,1.1,3.1,1.7,6.1,1.7c3.1,0,5.1-0.6,6.2-1.8c1.1-1.2,1.6-2.8,1.6-5L23.4,23.7L23.4,23.7z M15.5,0
	c5.3,0,9.3,1,11.8,3.1c2.5,2,3.8,4.6,3.8,7.7v26.4c0,1.1-0.2,2.2-0.6,3.5c-0.4,1.3-1.1,2.5-2.3,3.5c-1.1,1.1-2.7,2-4.7,2.7
	c-2,0.7-4.6,1.1-7.9,1.1c-3.2,0-5.8-0.4-7.9-1.1c-2-0.7-3.6-1.6-4.7-2.7c-1.1-1-1.9-2.2-2.3-3.5C0.2,39.5,0,38.3,0,37.2V33
	c0-2.2,0.6-4.3,1.8-6.1C3,25,4.7,23.7,6.9,22.9c1.1-0.4,2.3-0.7,3.8-1.2c1.4-0.5,2.7-1,4-1.4c1.3-0.4,2.5-0.9,3.4-1.2
	c0.6-0.2,1.2-0.4,1.8-0.6l1-0.5c0.4-0.2,0.8-0.5,1.1-1c0.4-0.4,0.7-0.9,1-1.4c0.3-0.6,0.4-1.2,0.4-1.9V12c0-0.6-0.1-1.2-0.4-1.8
	c-0.2-0.6-0.7-1.2-1.3-1.8c-0.6-0.5-1.4-1-2.4-1.3c-1-0.3-2.3-0.5-3.8-0.5c-3.1,0-5.1,0.6-6.2,1.8C8.6,9.5,8,10.8,7.9,12.3
	c0,0.3-0.3,0.5-0.6,0.5L0.7,13c-0.2,0-0.3-0.1-0.4-0.2c-0.1-0.1-0.2-0.3-0.2-0.4v-1.5c0-1.5,0.3-2.9,0.9-4.2
	c0.6-1.3,1.5-2.5,2.8-3.4c1.3-1,2.9-1.8,4.9-2.3C10.5,0.3,12.8,0,15.5,0L15.5,0z"/>
</svg>
